<svg width="130" height="32" viewBox="0 0 130 32" fill="none" xmlns="http://www.w3.org/2000/svg">
<g filter="url(#filter0_d_9514_1540)">
<path d="M1.21075 32C0.81075 32 0.61075 31.8 0.61075 31.4V0.607998C0.61075 0.207998 0.81075 0.00799847 1.21075 0.00799847H17.9148C18.3148 0.00799847 18.5148 0.207998 18.5148 0.607998V8.336C18.5148 8.736 18.3148 8.936 17.9148 8.936H10.1868V11.936H17.7468C18.1468 11.936 18.3468 12.136 18.3468 12.536V19.472C18.3468 19.872 18.1468 20.072 17.7468 20.072H10.1868V23.072H17.9148C18.3148 23.072 18.5148 23.272 18.5148 23.672V31.4C18.5148 31.8 18.3148 32 17.9148 32H1.21075ZM22.7386 32C22.3386 32 22.1386 31.8 22.1386 31.4V25.088C22.1386 24.896 22.1466 24.744 22.1626 24.632C22.1946 24.504 22.2906 24.392 22.4506 24.296L27.7786 21.392V19.544L22.5226 16.664C22.2666 16.52 22.1386 16.28 22.1386 15.944V5.552C22.1386 5.296 22.1546 5.112 22.1866 5C22.2186 4.872 22.3306 4.736 22.5226 4.592L28.8586 0.319999C28.9866 0.223998 29.1226 0.151998 29.2666 0.103997C29.4106 0.0399981 29.5946 0.00799847 29.8186 0.00799847H37.8826C38.2826 0.00799847 38.4826 0.207998 38.4826 0.607998V7.088C38.4826 7.44 38.3626 7.68 38.1226 7.808L31.8346 10.52V12.44L38.1226 16.04C38.3626 16.152 38.4826 16.408 38.4826 16.808V27.248C38.4826 27.376 38.4586 27.512 38.4106 27.656C38.3786 27.784 38.2986 27.888 38.1706 27.968L30.6346 31.712C30.5386 31.776 30.4186 31.84 30.2746 31.904C30.1466 31.968 30.0186 32 29.8906 32H22.7386ZM42.7264 32C42.3264 32 42.1264 31.8 42.1264 31.4V0.607998C42.1264 0.207998 42.3264 0.00799847 42.7264 0.00799847H51.1024C51.5024 0.00799847 51.7024 0.207998 51.7024 0.607998V10.688H52.6144L54.1504 4.688L55.1584 0.319999C55.1904 0.191998 55.2864 0.111999 55.4464 0.079999C55.6064 0.0319986 55.7664 0.00799847 55.9264 0.00799847H63.7984C64.1984 0.00799847 64.3984 0.207998 64.3984 0.607998V6.128C64.3984 6.288 64.3664 6.432 64.3024 6.56C64.2544 6.672 64.1984 6.8 64.1344 6.944L60.7744 14.6L60.0304 15.92L60.7744 17.312L64.7344 25.352C64.7984 25.464 64.8464 25.592 64.8784 25.736C64.9104 25.864 64.9264 26.04 64.9264 26.264V31.4C64.9264 31.8 64.7264 32 64.3264 32H56.3344C56.2064 32 56.0624 31.976 55.9024 31.928C55.7424 31.88 55.6464 31.784 55.6144 31.64L54.0784 26.552L52.6864 22.304H51.7024V31.4C51.7024 31.8 51.5024 32 51.1024 32H42.7264ZM69.0858 32C68.6858 32 68.4858 31.8 68.4858 31.4V0.607998C68.4858 0.207998 68.6858 0.00799847 69.0858 0.00799847H77.4618C77.8618 0.00799847 78.0618 0.207998 78.0618 0.607998V31.4C78.0618 31.8 77.8618 32 77.4618 32H69.0858ZM88.0048 32C87.6368 32 87.3168 31.864 87.0448 31.592L82.2448 26.792C81.9888 26.536 81.8608 26.216 81.8608 25.832V0.607998C81.8608 0.207998 82.0608 0.00799847 82.4608 0.00799847H90.8368C91.2368 0.00799847 91.4368 0.207998 91.4368 0.607998V21.464H94.1488V0.607998C94.1488 0.207998 94.3488 0.00799847 94.7488 0.00799847H103.125C103.525 0.00799847 103.725 0.207998 103.725 0.607998V21.464H106.437V0.607998C106.437 0.207998 106.637 0.00799847 107.037 0.00799847H115.413C115.813 0.00799847 116.013 0.207998 116.013 0.607998V25.832C116.013 26.216 115.877 26.536 115.605 26.792L110.805 31.592C110.533 31.864 110.213 32 109.845 32H104.493C104.109 32 103.789 31.864 103.533 31.592L99.4768 27.56H98.3728L94.3168 31.592C94.0608 31.864 93.7408 32 93.3568 32H88.0048ZM120.398 32C119.998 32 119.798 31.8 119.798 31.4V0.607998C119.798 0.207998 119.998 0.00799847 120.398 0.00799847H128.774C129.174 0.00799847 129.374 0.207998 129.374 0.607998V31.4C129.374 31.8 129.174 32 128.774 32H120.398Z" fill="#FC5193"/>
</g>
<defs>
<filter id="filter0_d_9514_1540" x="0.610748" y="0.00805664" width="128.764" height="31.9919" filterUnits="userSpaceOnUse" color-interpolation-filters="sRGB">
<feFlood flood-opacity="0" result="BackgroundImageFix"/>
<feColorMatrix in="SourceAlpha" type="matrix" values="0 0 0 0 0 0 0 0 0 0 0 0 0 0 0 0 0 0 127 0" result="hardAlpha"/>
<feOffset/>
<feComposite in2="hardAlpha" operator="out"/>
<feColorMatrix type="matrix" values="0 0 0 0 0 0 0 0 0 0 0 0 0 0 0 0 0 0 0.25 0"/>
<feBlend mode="normal" in2="BackgroundImageFix" result="effect1_dropShadow_9514_1540"/>
<feBlend mode="normal" in="SourceGraphic" in2="effect1_dropShadow_9514_1540" result="shape"/>
</filter>
</defs>
</svg>
